<?xml version="1.0" encoding="UTF-8"?>
<svg width="2078px" height="2075px" viewBox="0 0 2078 2075" version="1.1" xmlns="http://www.w3.org/2000/svg" xmlns:xlink="http://www.w3.org/1999/xlink">
    <!-- Generator: Sketch 49.3 (51167) - http://www.bohemiancoding.com/sketch -->
    <title>Group</title>
    <desc>Created with Sketch.</desc>
    <defs></defs>
    <g id="Page-1" stroke="none" stroke-width="1" fill="none" fill-rule="evenodd">
        <path d="M1538,828 C1538,836.666667 1534.66667,844.333333 1528,851 L1062,1317 C1055.33333,1323.66667 1047.66667,1327 1039,1327 C1030.33333,1327 1022.66667,1323.66667 1016,1317 L550,851 C543.333333,844.333333 540,836.666667 540,828 C540,819.333333 543.333333,811.666667 550,805 L600,755 C606.666667,748.333333 614.333333,745 623,745 C631.666667,745 639.333333,748.333333 646,755 L1039,1148 L1432,755 C1438.66667,748.333333 1446.33333,745 1455,745 C1463.66667,745 1471.33333,748.333333 1478,755 L1528,805 C1534.66667,811.666667 1538,819.333333 1538,828 Z" id="Shape" fill="#4A4A4A" fill-rule="nonzero"></path>
    </g>
</svg>