<?xml version="1.0" encoding="UTF-8"?>
<svg width="2078px" height="2075px" viewBox="0 0 2078 2075" version="1.1" xmlns="http://www.w3.org/2000/svg" xmlns:xlink="http://www.w3.org/1999/xlink">
    <!-- Generator: Sketch 49.3 (51167) - http://www.bohemiancoding.com/sketch -->
    <title>Group</title>
    <desc>Created with Sketch.</desc>
    <defs></defs>
    <g id="Page-1" stroke="none" stroke-width="1" fill="none" fill-rule="evenodd">
        <g id="Group" transform="translate(540.000000, 538.000000)" fill="#4A4A4A" fill-rule="nonzero">
            <g id="angle-down-copy">
                <path d="M998,83 C998,91.6666667 994.666667,99.3333333 988,106 L522,572 C515.333333,578.666667 507.666667,582 499,582 C490.333333,582 482.666667,578.666667 476,572 L10,106 C3.33333333,99.3333333 0,91.6666667 0,83 C0,74.3333333 3.33333333,66.6666667 10,60 L60,10 C66.6666667,3.33333333 74.3333333,0 83,0 C91.6666667,0 99.3333333,3.33333333 106,10 L499,403 L892,10 C898.666667,3.33333333 906.333333,0 915,0 C923.666667,0 931.333333,3.33333333 938,10 L988,60 C994.666667,66.6666667 998,74.3333333 998,83 Z" id="Shape"></path>
            </g>
            <g id="angle-down-copy" transform="translate(499.000000, 705.000000) rotate(180.000000) translate(-499.000000, -705.000000) translate(0.000000, 414.000000)">
                <path d="M998,82 C998,90.6666667 994.666667,99.3333333 988,106 L522,572 C515.333333,578.666667 507.666667,582 499,582 C490.333333,582 482.666667,578.666667 476,572 L10,106 C3.33333333,99.3333333 0,91.6666667 0,83 C0,74.3333333 3.33333333,66.6666667 10,60 L60,10 C66.6666667,3.33333333 74.3333333,2.27373675e-13 83,2.27373675e-13 C91.6666667,2.27373675e-13 99.3333333,3.33333333 106,10 L499,403 L892,10 C898.666667,3.33333333 906.333333,2.27373675e-13 915,2.27373675e-13 C923.666667,2.27373675e-13 931.333333,3.33333333 938,10 L988,60 C994.666667,66.6666667 998,73.3333333 998,82 Z" id="Shape"></path>
            </g>
        </g>
    </g>
</svg>