<?xml version="1.0" encoding="UTF-8"?>
<svg width="20px" height="24px" viewBox="0 0 20 24" version="1.1" xmlns="http://www.w3.org/2000/svg" xmlns:xlink="http://www.w3.org/1999/xlink">
    <!-- Generator: Sketch 49.2 (51160) - http://www.bohemiancoding.com/sketch -->
    <title>up 7 copy 2</title>
    <desc>Created with Sketch.</desc>
    <defs></defs>
    <g id="Sempo-Dashboard" stroke="none" stroke-width="1" fill="none" fill-rule="evenodd">
        <g id="Desktop-HD" transform="translate(-545.000000, -897.000000)" fill="#4A4A4A" fill-rule="nonzero">
            <g id="Beneficaries" transform="translate(25.000000, 676.000000)">
                <g id="Group-5" transform="translate(520.000000, 221.000000)">
                    <g id="up-7-copy-2">
                        <path d="M19,10 C18.872,10 18.744,9.951 18.646,9.854 L10,1.207 L1.354,9.854 C1.159,10.049 0.842,10.049 0.647,9.854 C0.452,9.659 0.452,9.342 0.647,9.147 L9.647,0.147 C9.842,-0.048 10.159,-0.048 10.354,0.147 L19.354,9.147 C19.549,9.342 19.549,9.659 19.354,9.854 C19.256,9.951 19.128,10 19,10 Z" id="Shape"></path>
                        <path d="M10,24 C9.724,24 9.5,23.776 9.5,23.5 L9.5,0.5 C9.5,0.224 9.724,0 10,0 C10.276,0 10.5,0.224 10.5,0.5 L10.5,23.5 C10.5,23.776 10.276,24 10,24 Z" id="Shape"></path>
                    </g>
                </g>
            </g>
        </g>
    </g>
</svg>