<?xml version="1.0" encoding="utf-8"?>
<!-- Generator: Adobe Illustrator 19.0.0, SVG Export Plug-In . SVG Version: 6.00 Build 0)  -->
<svg version="1.1" id="Layer_1" xmlns="http://www.w3.org/2000/svg" xmlns:xlink="http://www.w3.org/1999/xlink" x="0px" y="0px"
	 viewBox="0 0 30 30" style="enable-background:new 0 0 30 30;" xml:space="preserve">
<g>
	<g>
		<g>
			<g>
				<path d="M15.5,27h-15C0.2,27,0,26.8,0,26.5v-18c0-0.1,0.1-0.3,0.1-0.4l8-8C8.2,0.1,8.4,0,8.5,0h13C21.8,0,22,0.2,22,0.5v15
					c0,0.3-0.2,0.5-0.5,0.5S21,15.8,21,15.5V1H8.7L1,8.7V26h14.5c0.3,0,0.5,0.2,0.5,0.5S15.8,27,15.5,27z"/>
			</g>
			<g>
				<path d="M8.5,9h-8C0.2,9,0,8.8,0,8.5S0.2,8,0.5,8H8V0.5C8,0.2,8.2,0,8.5,0S9,0.2,9,0.5v8C9,8.8,8.8,9,8.5,9z"/>
			</g>
		</g>
	</g>
	<g>
		<path d="M28,28c-0.1,0-0.3,0-0.4-0.1l-8.5-8.5c-0.2-0.2-0.2-0.5,0-0.7s0.5-0.2,0.7,0l8.5,8.5c0.2,0.2,0.2,0.5,0,0.7
			C28.3,28,28.1,28,28,28z"/>
	</g>
	<g>
		<path d="M23.5,30c-3.6,0-6.5-2.9-6.5-6.5s2.9-6.5,6.5-6.5s6.5,2.9,6.5,6.5S27.1,30,23.5,30z M23.5,18c-3,0-5.5,2.5-5.5,5.5
			s2.5,5.5,5.5,5.5s5.5-2.5,5.5-5.5S26.5,18,23.5,18z"/>
	</g>
</g>
</svg>
