<?xml version="1.0" encoding="iso-8859-1"?>
<!-- Generator: Adobe Illustrator 16.0.0, SVG Export Plug-In . SVG Version: 6.00 Build 0)  -->
<!DOCTYPE svg PUBLIC "-//W3C//DTD SVG 1.1//EN" "http://www.w3.org/Graphics/SVG/1.1/DTD/svg11.dtd">
<svg version="1.1" id="Capa_1" xmlns="http://www.w3.org/2000/svg" xmlns:xlink="http://www.w3.org/1999/xlink" x="0px" y="0px"
	 width="442.762px" height="442.762px" viewBox="0 0 442.762 442.762" style="enable-background:new 0 0 442.762 442.762;"
	 xml:space="preserve">
<g>
	<path d="M237.082,31.617c-113.596,0-205.68,84.96-205.68,189.764c0,28.473,6.809,55.473,18.986,79.711L1.736,389.064
		c-2.705,4.887-2.215,10.916,1.238,15.307c2.672,3.396,6.721,5.299,10.912,5.299c1.223,0,2.457-0.162,3.674-0.498l106.506-29.232
		c32.432,19.719,71.266,31.205,113.016,31.205c113.594,0,205.68-84.959,205.68-189.764
		C442.762,116.577,350.676,31.617,237.082,31.617z M236.737,318.873c-11.227,0-20.356-9.132-20.356-20.357
		c0-11.225,9.131-20.357,20.356-20.357c11.227,0,20.357,9.133,20.357,20.357C257.096,309.74,247.965,318.873,236.737,318.873z
		 M258.064,222.034c-2.674,1.828-4.522,3.175-5.522,4.021v21.272c0,8.712-7.091,15.8-15.802,15.8c-8.715,0-15.802-7.088-15.802-15.8
		v-22.918c0-15.281,11.152-22.903,19.296-28.467c8.789-6.005,14.595-9.972,14.595-22.361c0-9.975-8.113-18.09-18.089-18.09
		c-9.977,0-18.089,8.115-18.089,18.09c0,8.713-7.09,15.801-15.803,15.801c-8.713,0-15.803-7.088-15.803-15.801
		c0-27.4,22.293-49.692,49.694-49.692c27.398,0,49.691,22.292,49.691,49.692C286.432,202.653,268.674,214.787,258.064,222.034z"/>
</g>
<g>
</g>
<g>
</g>
<g>
</g>
<g>
</g>
<g>
</g>
<g>
</g>
<g>
</g>
<g>
</g>
<g>
</g>
<g>
</g>
<g>
</g>
<g>
</g>
<g>
</g>
<g>
</g>
<g>
</g>
</svg>
