<?xml version="1.0" encoding="UTF-8"?>
<svg width="1212px" height="1254px" viewBox="0 0 1212 1254" version="1.1" xmlns="http://www.w3.org/2000/svg" xmlns:xlink="http://www.w3.org/1999/xlink">
    <!-- Generator: Sketch 58 (84663) - https://sketch.com -->
    <title>Sempo Icon</title>
    <desc>Created with Sketch.</desc>
    <g id="Page-3" stroke="none" stroke-width="1" fill="none" fill-rule="evenodd">
        <g id="Group" transform="translate(-2523.000000, -170.000000)" fill="#42B1B1">
            <g id="Version-1" transform="translate(3129.053382, 797.221449) rotate(-42.000000) translate(-3129.053382, -797.221449) translate(2715.053382, 97.221449)">
                <path d="M828,985.992218 C828,1214.6424 642.645886,1400 414,1400 C185.354114,1400 1.27329258e-11,1214.6424 1.27329258e-11,985.992218 C1.27329258e-11,908.977452 21.028443,836.874234 57.6567483,775.111248 C59.64916,771.751625 62.0249802,767.987081 64.784209,763.817618 C77.4026631,744.749905 103.089086,739.521939 122.156441,752.140629 C123.673619,753.144691 125.122964,754.247671 126.495049,755.442397 C133.610998,761.638519 139.813127,766.732991 145.101434,770.725814 C178.375576,795.848739 215.275818,816.423538 254.877681,831.525717 C258.511714,832.911557 262.61298,834.350215 267.18148,835.841693 C286.629152,842.190772 297.247754,863.103466 290.898794,882.551503 C289.548362,886.688123 287.479646,890.554444 284.78752,893.97315 C282.686175,896.641629 280.860978,899.20018 279.311928,901.648802 C263.873429,926.052836 254.936842,954.978882 254.936842,985.992218 C254.936842,1073.24031 325.66407,1143.96887 412.910526,1143.96887 C500.156983,1143.96887 570.884211,1073.24031 570.884211,985.992218 C570.884211,899.107574 487.000729,838.692308 414,828.01898 C284.957023,809.1518 190.033961,778.88134 114.653536,700 C43.6248278,625.672485 1.27329258e-11,524.934791 1.27329258e-11,414.007782 C1.27329258e-11,185.357598 185.354114,0 414,0 C642.645886,0 828,185.357598 828,414.007782 C828,491.022548 806.971557,563.125766 770.343252,624.888752 C768.35084,628.248375 765.97502,632.012919 763.215791,636.182382 C750.597337,655.250095 724.910914,660.478061 705.843559,647.859371 C704.326381,646.855309 702.877036,645.752329 701.504951,644.557603 C694.389002,638.361481 688.186873,633.267009 682.898566,629.274186 C649.624424,604.151261 612.724182,583.576462 573.122319,568.474283 C569.488286,567.088443 565.38702,565.649785 560.81852,564.158307 C541.370848,557.809228 530.752246,536.896534 537.101206,517.448497 C538.451638,513.311877 540.520354,509.445556 543.21248,506.02685 C545.313825,503.358371 547.139022,500.79982 548.688072,498.351198 C564.126571,473.947164 573.063158,445.021118 573.063158,414.007782 C573.063158,326.759685 502.33593,256.031128 415.089474,256.031128 C327.843017,256.031128 257.115789,326.759685 257.115789,414.007782 C257.115789,500.892426 340.999271,561.307692 414,571.98102 C543.042977,590.8482 637.966039,621.11866 713.346464,700 C784.375172,774.327515 828,875.065209 828,985.992218 Z" id="Combined-Shape"></path>
            </g>
        </g>
    </g>
</svg>