<?xml version="1.0" encoding="UTF-8"?>
<svg width="96px" height="89px" viewBox="0 0 96 89" version="1.1" xmlns="http://www.w3.org/2000/svg" xmlns:xlink="http://www.w3.org/1999/xlink">
    <!-- Generator: Sketch 50.2 (55047) - http://www.bohemiancoding.com/sketch -->
    <title>sempo_logo</title>
    <desc>Created with Sketch.</desc>
    <defs></defs>
    <g id="Page-1" stroke="none" stroke-width="1" fill="none" fill-rule="evenodd">
        <g id="sempo_logo" transform="translate(0.000000, -3.000000)" stroke="#2D9EA0">
            <g id="Group" transform="translate(49.000000, 47.500000) rotate(-4.000000) translate(-49.000000, -47.500000) translate(3.000000, 4.000000)">
                <path d="M56.4419993,3.23792421 L89.881978,33.3861573 C91.7246372,35.0474298 91.7246372,35.0474298 90.8322946,37.2578444 L83.0055971,56.6452916 C81.7955376,59.1697334 81.7955376,59.1697334 80.0470274,61.9931355 C68.91953,74.9311062 62.252548,81.8730779 60.0460814,82.8190506 L52.3936521,86.182461 C50.9456827,86.5553136 50.9456827,86.5553136 50.7185396,85.1170004 L50.2473549,74.2196993 L3.63253508,57.75713 C2.36274091,57.277788 2.36274091,57.277788 2.3125791,55.8727462 L1.00502517,19.2479115 C1.00502517,17.5469351 0.944298108,17.5469351 2.20100704,17.1392055 L48.9441758,1.97374145 C53.4266817,0.519426661 53.4266817,0.519426661 56.4419993,3.23792421 Z" id="Path-2" stroke-width="3"></path>
                <g id="inside" stroke-width="1.5">
                    <path d="M53.8241137,1.43883436 C61.5422803,18.7045862 66.8747067,30.3246454 69.8213929,36.2990118 C71.4649877,39.6313781 72.9365886,42.6150291 74.2361956,45.2499647 C79.1461898,55.2049117 81.6011869,60.1823852 81.6011869,60.1823852 C81.6011869,60.1823852 72.3421625,40.6012016 53.8241137,1.43883436 Z" id="Path-3"></path>
                    <path d="M0.825702625,17.6966934 L81.3481524,60.3083283" id="Path-4"></path>
                    <path d="M59.6123466,82.5495986 L51.9814674,0.339800455" id="Path-6"></path>
                    <path d="M1.90828127,56.7129774 L81.3481524,60.3083283" id="Path-8"></path>
                    <path d="M59.2362919,82.3662589 C59.2362919,82.3662589 39.760413,60.8901221 0.808655157,17.9378484 C39.760413,60.8901221 59.2362919,82.3662589 59.2362919,82.3662589 Z" id="Path-7"></path>
                </g>
            </g>
        </g>
    </g>
</svg>