<?xml version="1.0" encoding="UTF-8"?>
<svg width="46px" height="46px" viewBox="0 0 46 46" version="1.1" xmlns="http://www.w3.org/2000/svg" xmlns:xlink="http://www.w3.org/1999/xlink">
    <!-- Generator: Sketch 51.2 (57519) - http://www.bohemiancoding.com/sketch -->
    <title>Group 8</title>
    <desc>Created with Sketch.</desc>
    <defs>
        <circle id="path-1" cx="23" cy="23" r="23"></circle>
    </defs>
    <g id="Sempo-Dashboard" stroke="none" stroke-width="1" fill="none" fill-rule="evenodd">
        <g id="Tech-Demo-Landing-Page" transform="translate(-950.000000, -190.000000)">
            <g id="Group-8" transform="translate(950.000000, 190.000000)">
                <mask id="mask-2" fill="white">
                    <use xlink:href="#path-1"></use>
                </mask>
                <use id="Mask" fill="#697680" xlink:href="#path-1"></use>
                <g id="store" mask="url(#mask-2)">
                    <g transform="translate(8.000000, 10.000000)">
                        <path d="M9.12671711,5.75092254 C9.00579162,5.60326616 8.82503985,5.51798187 8.63410487,5.51798187 L6.08830522,5.51798187 C5.86427485,5.51798187 5.65806508,5.63508866 5.5422312,5.82729653 L1.72353172,12.1917957 C1.66370543,12.2898089 1.63315584,12.403097 1.63315584,12.5189309 C1.63315584,14.2729869 3.06134944,15.7011805 4.8154054,15.7011805 C6.56946136,15.7011805 7.99765496,14.2729869 7.98492596,12.6436751 L9.25782579,6.27917597 C9.29601278,6.09205969 9.24636969,5.89857892 9.12671711,5.75092254 Z" id="Shape" fill="#FFFFFF" fill-rule="nonzero"></path>
                        <path d="M17.5444037,5.51798187 L12.4528044,5.51798187 C12.101484,5.51798187 11.8163544,5.80311143 11.8163544,6.15443179 L11.8163544,12.5189309 C11.8163544,14.2729869 13.244548,15.7011805 14.998604,15.7011805 C16.75266,15.7011805 18.1808536,14.2729869 18.1808536,12.5189309 L18.1808536,6.15443179 C18.1808536,5.80311143 17.895724,5.51798187 17.5444037,5.51798187 Z" id="Shape" fill="#FFFFFF" fill-rule="nonzero"></path>
                        <path d="M12.4528044,5.51798187 L8.63410487,5.51798187 C8.33115472,5.51798187 8.07021025,5.73182904 8.01038396,6.0296876 L6.72475514,12.5189309 C6.72475514,14.2729869 8.15294874,15.7011805 9.9070047,15.7011805 C11.6610607,15.7011805 13.0892543,14.2729869 13.0892543,12.5189309 L13.0892543,6.15443179 C13.0892543,5.80311143 12.8041247,5.51798187 12.4528044,5.51798187 Z" id="Shape" fill="#FFFFFF" fill-rule="nonzero"></path>
                        <path d="M28.2736763,12.1917957 L24.4549768,5.82729653 C24.3391429,5.63508866 24.1329331,5.51798187 23.9089028,5.51798187 L21.3631031,5.51798187 C21.1721682,5.51798187 20.9914164,5.60326616 20.8704909,5.75092254 C20.7495654,5.89857892 20.7011952,6.09205969 20.7381093,6.27917597 L21.999553,12.5189309 C21.999553,14.2729869 23.4277466,15.7011805 25.1818026,15.7011805 C26.9358586,15.7011805 28.3640522,14.2729869 28.3640522,12.5189309 C28.3640522,12.403097 28.3335026,12.2898089 28.2736763,12.1917957 Z" id="Shape" fill="#FFFFFF" fill-rule="nonzero"></path>
                        <path d="M21.986824,6.0296876 C21.9269977,5.73182904 21.6660533,5.51798187 21.3631031,5.51798187 L17.5444037,5.51798187 C17.1930833,5.51798187 16.9079537,5.80311143 16.9079537,6.15443179 L16.9079537,12.5189309 C16.9079537,14.2729869 18.3361473,15.7011805 20.0902033,15.7011805 C21.8442593,15.7011805 23.2724529,14.2729869 23.2597239,12.3941867 L21.986824,6.0296876 Z" id="Shape" fill="#FFFFFF" fill-rule="nonzero"></path>
                        <g id="Group" stroke-width="1" fill="none" fill-rule="evenodd" transform="translate(4.000000, 16.000000)">
                            <rect id="Rectangle-path" fill="#FFFFFF" fill-rule="nonzero" x="3.99765496" y="2.24698013" width="5.0915993" height="5.0915993"></rect>
                            <rect id="Rectangle-path" fill="#FFFFFF" fill-rule="nonzero" x="12.9079537" y="2.24698013" width="5.0915993" height="7.63739895"></rect>
                            <path d="M21.1818026,0.974080301 C20.2296735,0.974080301 19.3551914,0.672403043 18.6334572,0.168334712 C17.9104501,0.672403043 17.0359679,0.974080301 16.0902033,0.974080301 L18.636003,0.974080301 C18.9873233,0.974080301 19.2724529,1.25920986 19.2724529,1.61053021 L19.2724529,9.88437908 L21.8182525,9.88437908 L21.8182525,0.90916241 C21.608224,0.939712006 21.3994685,0.974080301 21.1818026,0.974080301 Z" id="Shape" fill="#FFFFFF" fill-rule="nonzero"></path>
                            <path d="M10.998604,0.974080301 C10.0515665,0.974080301 9.17581145,0.671130143 8.45280435,0.165788912 C7.72979725,0.671130143 6.85404217,0.974080301 5.9070047,0.974080301 L9.72570418,0.974080301 C10.0770245,0.974080301 10.3621541,1.25920986 10.3621541,1.61053021 L10.3621541,7.97502934 C10.3621541,8.32634969 10.0770245,8.61147925 9.72570418,8.61147925 L3.36120505,8.61147925 C3.0098847,8.61147925 2.72475514,8.32634969 2.72475514,7.97502934 L2.72475514,1.61053021 C2.72475514,1.25920986 3.0098847,0.974080301 3.36120505,0.974080301 L5.9070047,0.974080301 C4.96251303,0.974080301 4.08930375,0.673675943 3.36756955,0.170880512 C2.64456245,0.671130143 1.76880737,0.974080301 0.815405398,0.974080301 C0.597739528,0.974080301 0.388983957,0.939712006 0.178955486,0.90916241 L0.178955486,9.88437908 L11.6350539,9.88437908 L11.6350539,1.61053021 C11.6350539,1.25920986 11.9201835,0.974080301 12.2715038,0.974080301 L16.0902033,0.974080301 C15.1431658,0.974080301 14.2674108,0.671130143 13.5444037,0.165788912 C12.8213966,0.671130143 11.9456415,0.974080301 10.998604,0.974080301 Z" id="Shape" fill="#FFFFFF" fill-rule="nonzero"></path>
                        </g>
                        <path d="M26.4547024,27.1572789 L3.54250557,27.1572789 C1.78844961,27.1572789 0.36025601,30.8384566 0.36025601,35.3595465 C0.36025601,36.2650768 0.645385571,37 0.996705923,37 L29.0005021,37 C29.3518224,37 29.636952,36.2650768 29.636952,35.3595465 C29.636952,30.8384566 28.2087584,27.1572789 26.4547024,27.1572789 Z" id="Shape" fill="#FFFFFF" fill-rule="nonzero"></path>
                        <path d="M24.5453527,4.24508205 L24.5453527,3.60863214 C24.5453527,1.85457618 23.1171591,0.426382573 21.3631031,0.426382573 L8.63410487,0.426382573 C6.88004891,0.426382573 5.45185531,1.85457618 5.45185531,3.60863214 L5.45185531,4.24508205 L24.5453527,4.24508205 Z" id="Shape" fill="#FFFFFF" fill-rule="nonzero"></path>
                    </g>
                </g>
            </g>
        </g>
    </g>
</svg>