<?xml version="1.0" encoding="UTF-8"?>
<svg width="27px" height="30px" viewBox="0 0 27 30" version="1.1" xmlns="http://www.w3.org/2000/svg" xmlns:xlink="http://www.w3.org/1999/xlink">
    <!-- Generator: Sketch 49.2 (51160) - http://www.bohemiancoding.com/sketch -->
    <title>transfer copy 5</title>
    <desc>Created with Sketch.</desc>
    <defs></defs>
    <g id="Sempo-Dashboard" stroke="none" stroke-width="1" fill="none" fill-rule="evenodd">
        <g id="Desktop-HD" transform="translate(-544.000000, -757.000000)" fill="#2D9EA0" fill-rule="nonzero">
            <g id="Beneficaries" transform="translate(25.000000, 676.000000)">
                <g id="Group-4" transform="translate(519.000000, 77.000000)">
                    <g id="transfer-copy-5" transform="translate(0.000000, 4.000000)">
                        <g id="down-left-1" transform="translate(0.000000, 12.000000)">
                            <path d="M26.55,0.01875 C26.28,0.01875 26.1,0.16875 26.1,0.39375 C26.1,6.61875 20.88,11.26875 13.95,11.26875 L1.53,11.26875 L7.965,5.90625 C8.145,5.75625 8.145,5.53125 7.965,5.38125 C7.785,5.23125 7.515,5.23125 7.335,5.38125 L0.1872,11.33775 C0.0729,11.40225 0,11.5065 0,11.64375 C0,11.781 0.0729,11.88525 0.1872,11.94975 L7.335,17.90625 C7.425,17.98125 7.605,17.98125 7.695,17.98125 C7.785,17.98125 7.965,17.98125 7.965,17.83125 C8.145,17.68125 8.145,17.45625 7.965,17.30625 L1.62,12.01875 L13.95,12.01875 C21.42,12.01875 27,6.99375 27,0.39375 C27,0.16875 26.82,0.01875 26.55,0.01875 Z" id="Shape"></path>
                        </g>
                        <g id="down-left-1-copy" transform="translate(13.500000, 9.000000) scale(-1, -1) translate(-13.500000, -9.000000) ">
                            <path d="M26.55,0.01875 C26.28,0.01875 26.1,0.16875 26.1,0.39375 C26.1,6.61875 20.88,11.26875 13.95,11.26875 L1.53,11.26875 L7.965,5.90625 C8.145,5.75625 8.145,5.53125 7.965,5.38125 C7.785,5.23125 7.515,5.23125 7.335,5.38125 L0.1872,11.33775 C0.0729,11.40225 0,11.5065 0,11.64375 C0,11.781 0.0729,11.88525 0.1872,11.94975 L7.335,17.90625 C7.425,17.98125 7.605,17.98125 7.695,17.98125 C7.785,17.98125 7.965,17.98125 7.965,17.83125 C8.145,17.68125 8.145,17.45625 7.965,17.30625 L1.62,12.01875 L13.95,12.01875 C21.42,12.01875 27,6.99375 27,0.39375 C27,0.16875 26.82,0.01875 26.55,0.01875 Z" id="Shape"></path>
                        </g>
                    </g>
                </g>
            </g>
        </g>
    </g>
</svg>