<?xml version="1.0" encoding="UTF-8"?>
<svg width="29px" height="20px" viewBox="0 0 29 20" version="1.1" xmlns="http://www.w3.org/2000/svg" xmlns:xlink="http://www.w3.org/1999/xlink">
    <!-- Generator: Sketch 51.3 (57544) - http://www.bohemiancoding.com/sketch -->
    <title>Group</title>
    <desc>Created with Sketch.</desc>
    <defs></defs>
    <g id="Page-1" stroke="none" stroke-width="1" fill="none" fill-rule="evenodd">
        <g id="Group" transform="translate(1.000000, 0.000000)">
            <g id="disbursement" transform="translate(16.000000, 10.000000) rotate(90.000000) translate(-16.000000, -10.000000) translate(6.000000, -2.000000)" fill="#4A4A4A" fill-rule="nonzero">
                <path d="M19,10 C18.872,10 18.744,9.951 18.646,9.854 L10,1.207 L1.354,9.854 C1.159,10.049 0.842,10.049 0.647,9.854 C0.452,9.659 0.452,9.342 0.647,9.147 L9.647,0.147 C9.842,-0.048 10.159,-0.048 10.354,0.147 L19.354,9.147 C19.549,9.342 19.549,9.659 19.354,9.854 C19.256,9.951 19.128,10 19,10 Z" id="Shape"></path>
                <path d="M10,24 C9.724,24 9.5,23.776 9.5,23.5 L9.5,0.5 C9.5,0.224 9.724,0 10,0 C10.276,0 10.5,0.224 10.5,0.5 L10.5,23.5 C10.5,23.776 10.276,24 10,24 Z" id="Shape"></path>
            </g>
            <circle id="Oval" stroke="#4A4A4A" cx="1" cy="10" r="1"></circle>
        </g>
    </g>
</svg>