<?xml version="1.0" standalone="no"?>
<!DOCTYPE svg PUBLIC "-//W3C//DTD SVG 20010904//EN"
        "http://www.w3.org/TR/2001/REC-SVG-20010904/DTD/svg10.dtd">
<svg version="1.0" xmlns="http://www.w3.org/2000/svg"
     width="1254.000000pt" height="1254.000000pt" viewBox="0 0 1254.000000 1254.000000"
     preserveAspectRatio="xMidYMid meet">
    <metadata>
        Created by potrace 1.11, written by Peter Selinger 2001-2013
    </metadata>
    <g transform="translate(0.000000,1254.000000) scale(0.100000,-0.100000)"
       fill="#000000" stroke="none">
        <path d="M4287 12534 c-1 -1 -71 -4 -156 -8 -84 -3 -156 -8 -160 -10 -3 -2
-37 -7 -76 -10 -284 -28 -586 -95 -880 -196 -114 -39 -284 -104 -313 -120 -9
-5 -75 -36 -147 -70 -687 -326 -1295 -872 -1715 -1540 -73 -115 -247 -450
-290 -555 -4 -11 -15 -36 -23 -55 -118 -276 -232 -704 -272 -1020 -4 -30 -9
-63 -11 -73 -1 -9 -6 -56 -10 -105 -3 -48 -8 -107 -10 -132 -5 -69 -5 -447 1
-515 4 -56 12 -143 21 -225 2 -19 6 -51 9 -70 3 -19 8 -53 11 -75 64 -458 289
-1089 521 -1457 12 -21 23 -42 23 -48 0 -5 5 -10 10 -10 6 0 10 -4 10 -9 0
-21 169 -265 284 -411 159 -200 420 -468 596 -610 30 -25 57 -47 60 -50 15
-17 214 -161 316 -228 285 -189 586 -336 916 -450 143 -50 360 -111 463 -131
28 -6 61 -13 75 -16 14 -3 63 -12 110 -20 47 -8 95 -17 108 -20 13 -2 53 -7
90 -10 37 -3 74 -8 82 -10 59 -16 488 -24 640 -11 168 13 402 47 465 66 17 5
46 11 65 14 19 3 98 23 175 46 77 22 147 42 155 44 26 7 244 86 265 96 11 5
47 20 80 33 109 44 188 81 380 177 196 99 272 141 483 267 128 76 149 89 412
260 176 114 273 168 398 220 134 55 333 115 422 127 19 2 46 7 60 10 63 14
106 17 270 21 96 2 204 0 240 -6 36 -5 81 -11 100 -14 198 -30 425 -122 596
-241 117 -83 270 -243 356 -374 48 -74 123 -215 143 -270 9 -25 21 -54 26 -65
27 -62 69 -239 85 -357 16 -129 7 -358 -20 -488 -77 -367 -264 -680 -541 -907
-107 -88 -98 -80 -160 -120 -173 -109 -419 -203 -595 -227 -217 -29 -380 -25
-578 15 -246 50 -504 174 -692 334 -294 250 -504 629 -545 980 -4 33 -8 69
-10 80 -19 121 -85 217 -187 274 -119 65 -212 64 -374 -3 -198 -81 -575 -197
-749 -231 -16 -3 -66 -12 -110 -20 -44 -8 -91 -17 -105 -20 -14 -3 -45 -8 -70
-11 -25 -3 -56 -7 -70 -9 -27 -4 -112 -14 -175 -20 -22 -2 -105 -7 -185 -10
-85 -4 -163 -13 -190 -22 -113 -37 -199 -113 -253 -222 -29 -59 -32 -73 -32
-160 0 -85 10 -184 20 -200 1 -3 6 -22 9 -41 25 -153 175 -649 207 -684 5 -6
9 -15 9 -22 0 -41 202 -439 316 -622 365 -588 895 -1097 1484 -1426 77 -43
313 -161 400 -199 64 -28 356 -135 411 -151 30 -8 88 -24 129 -36 226 -64 533
-117 785 -136 181 -14 716 -6 745 11 3 1 35 6 72 9 37 4 77 9 90 11 41 7 263
47 273 49 51 12 131 30 137 30 3 1 10 4 14 8 4 5 16 8 28 8 40 0 298 84 496
162 156 61 458 210 560 276 14 9 40 25 59 35 19 10 70 43 113 73 44 30 83 54
88 54 4 0 10 3 12 8 2 4 55 46 120 95 296 223 584 511 807 807 39 52 75 100
79 105 22 28 146 222 197 309 250 427 445 980 510 1446 3 25 8 56 10 70 2 14
7 48 10 75 3 28 7 66 10 85 23 175 23 614 0 810 -14 118 -43 314 -50 340 -2 8
-6 31 -9 50 -29 182 -129 520 -225 759 -311 771 -882 1464 -1576 1913 -174
112 -450 261 -600 325 -249 104 -579 212 -759 247 -112 22 -300 55 -336 60
-25 3 -70 8 -100 11 -30 4 -68 9 -85 11 -57 9 -540 12 -620 4 -160 -16 -210
-21 -225 -25 -8 -2 -35 -7 -60 -10 -177 -25 -502 -112 -725 -195 -386 -144
-851 -386 -1295 -674 -300 -195 -337 -217 -455 -275 -141 -69 -366 -144 -505
-167 -113 -20 -142 -24 -190 -30 -68 -7 -352 -8 -377 0 -10 3 -43 8 -73 11
-60 6 -289 63 -305 75 -5 4 -21 11 -35 15 -56 17 -170 77 -260 135 -124 81
-291 250 -382 386 -349 521 -364 1166 -40 1709 83 140 233 308 379 425 107 86
313 197 455 243 203 68 331 87 548 82 174 -4 189 -5 315 -35 305 -71 531 -197
779 -435 104 -100 218 -265 298 -431 59 -124 120 -320 133 -425 13 -115 16
-135 27 -169 27 -86 105 -172 195 -216 51 -26 69 -29 153 -29 92 0 99 2 224
53 71 30 136 55 145 57 9 2 59 19 111 38 52 18 142 46 199 61 57 15 111 30
120 32 9 2 88 19 176 38 136 28 220 42 430 71 17 2 86 7 155 10 262 13 292 18
375 65 116 67 205 210 207 334 1 43 -11 167 -18 177 -2 3 -6 21 -9 40 -8 43
-48 215 -70 294 -101 373 -282 780 -496 1111 -59 91 -167 248 -196 284 -7 8
-36 44 -64 80 -188 237 -524 565 -733 715 -16 11 -56 41 -90 67 -33 26 -65 48
-70 48 -4 0 -25 13 -45 28 -100 78 -380 233 -591 329 -303 136 -663 249 -960
299 -14 2 -34 6 -45 9 -11 2 -42 7 -70 10 -27 3 -59 8 -70 10 -11 2 -47 7 -80
10 -33 3 -76 8 -95 10 -55 7 -447 23 -453 19z"/>
    </g>
</svg>
